<svg xmlns="http://www.w3.org/2000/svg" xmlns:xlink="http://www.w3.org/1999/xlink" width="40" zoomAndPan="magnify" viewBox="0 0 30 30.000001" height="40" preserveAspectRatio="xMidYMid meet" version="1.0"><path fill="#ffffff" d="M 14.835938 3.378906 C 17.867188 3.378906 20.609375 4.609375 22.59375 6.59375 C 24.582031 8.578125 25.808594 11.320312 25.808594 14.351562 C 25.808594 17.382812 24.582031 20.125 22.59375 22.113281 C 20.609375 24.097656 17.867188 25.324219 14.835938 25.324219 C 11.804688 25.324219 9.0625 24.097656 7.078125 22.113281 C 5.089844 20.125 3.863281 17.382812 3.863281 14.351562 C 3.863281 11.324219 5.09375 8.578125 7.078125 6.59375 C 9.0625 4.609375 11.808594 3.378906 14.835938 3.378906 Z M 21.648438 7.542969 C 19.90625 5.796875 17.496094 4.71875 14.835938 4.71875 C 12.175781 4.71875 9.769531 5.796875 8.023438 7.542969 C 6.28125 9.285156 5.203125 11.691406 5.203125 14.351562 C 5.203125 17.011719 6.28125 19.421875 8.023438 21.164062 C 9.769531 22.90625 12.175781 23.984375 14.835938 23.984375 C 17.496094 23.984375 19.90625 22.90625 21.648438 21.164062 C 23.390625 19.421875 24.46875 17.011719 24.46875 14.351562 C 24.46875 11.691406 23.390625 9.285156 21.648438 7.542969 Z M 21.648438 7.542969 " fill-opacity="1" fill-rule="nonzero"/><path fill="#ffffff" d="M 23.558594 8.867188 C 23.261719 9.257812 22.941406 9.625 22.59375 9.96875 C 20.609375 11.953125 17.867188 13.183594 14.835938 13.183594 C 11.804688 13.183594 9.0625 11.953125 7.078125 9.96875 C 6.730469 9.625 6.410156 9.257812 6.113281 8.867188 C 6.363281 8.46875 6.640625 8.089844 6.945312 7.730469 C 7.265625 8.191406 7.628906 8.625 8.023438 9.019531 C 9.769531 10.761719 12.175781 11.839844 14.835938 11.839844 C 17.496094 11.839844 19.90625 10.761719 21.648438 9.019531 C 22.042969 8.625 22.40625 8.191406 22.730469 7.730469 C 23.03125 8.089844 23.308594 8.46875 23.558594 8.867188 Z M 23.558594 8.867188 " fill-opacity="1" fill-rule="nonzero"/><path fill="#ffffff" d="M 14.835938 15.523438 C 17.867188 15.523438 20.609375 16.75 22.59375 18.738281 C 22.941406 19.082031 23.261719 19.449219 23.558594 19.835938 C 23.308594 20.234375 23.03125 20.613281 22.726562 20.972656 C 22.40625 20.511719 22.042969 20.082031 21.648438 19.683594 C 19.902344 17.941406 17.496094 16.863281 14.835938 16.863281 C 12.175781 16.863281 9.765625 17.941406 8.023438 19.683594 C 7.628906 20.082031 7.265625 20.511719 6.941406 20.972656 C 6.640625 20.613281 6.363281 20.234375 6.113281 19.835938 C 6.410156 19.449219 6.730469 19.082031 7.078125 18.734375 C 9.0625 16.75 11.804688 15.523438 14.835938 15.523438 Z M 14.835938 15.523438 " fill-opacity="1" fill-rule="nonzero"/><path fill="#ffffff" d="M 15.507812 4.070312 L 15.507812 24.632812 L 15.496094 24.632812 L 15.484375 24.636719 L 15.445312 24.636719 C 15.398438 24.640625 15.355469 24.640625 15.308594 24.644531 L 15.300781 24.644531 C 15.246094 24.648438 15.191406 24.648438 15.136719 24.652344 L 15.078125 24.652344 C 15 24.65625 14.917969 24.65625 14.835938 24.65625 C 14.757812 24.65625 14.675781 24.65625 14.597656 24.652344 L 14.53125 24.652344 C 14.480469 24.648438 14.433594 24.648438 14.382812 24.644531 L 14.363281 24.644531 C 14.316406 24.640625 14.273438 24.640625 14.226562 24.636719 L 14.195312 24.636719 L 14.1875 24.632812 L 14.164062 24.632812 L 14.164062 4.070312 L 14.207031 4.070312 L 14.21875 4.066406 L 14.226562 4.066406 C 14.273438 4.066406 14.320312 4.0625 14.363281 4.058594 L 14.382812 4.058594 C 14.433594 4.058594 14.480469 4.054688 14.53125 4.054688 L 14.542969 4.054688 L 14.597656 4.050781 C 14.675781 4.050781 14.757812 4.046875 14.835938 4.046875 C 14.917969 4.046875 15 4.050781 15.078125 4.050781 L 15.089844 4.050781 L 15.132812 4.054688 C 15.191406 4.054688 15.242188 4.058594 15.300781 4.058594 L 15.308594 4.058594 C 15.355469 4.0625 15.398438 4.0625 15.445312 4.066406 L 15.464844 4.066406 L 15.476562 4.070312 Z M 15.507812 4.070312 " fill-opacity="1" fill-rule="nonzero"/><path fill="#ffffff" d="M 15.371094 4.449219 L 10.09375 11.460938 L 9.027344 10.660156 L 13.972656 4.085938 C 14.257812 4.0625 14.542969 4.050781 14.835938 4.050781 Z M 15.371094 4.449219 " fill-opacity="1" fill-rule="nonzero"/><path fill="#ffffff" d="M 15.699219 4.085938 L 20.644531 10.660156 L 19.578125 11.460938 L 14.300781 4.449219 L 14.835938 4.050781 C 15.125 4.050781 15.414062 4.0625 15.699219 4.085938 Z M 15.699219 4.085938 " fill-opacity="1" fill-rule="nonzero"/><path fill="#ffffff" d="M 13.972656 24.621094 L 9.027344 18.046875 L 10.09375 17.242188 L 15.371094 24.253906 L 14.835938 24.65625 C 14.546875 24.65625 14.257812 24.644531 13.972656 24.621094 Z M 13.972656 24.621094 " fill-opacity="1" fill-rule="nonzero"/><path fill="#ffffff" d="M 14.300781 24.253906 L 19.578125 17.242188 L 20.644531 18.042969 L 15.699219 24.617188 C 15.414062 24.640625 15.125 24.65625 14.835938 24.65625 Z M 14.300781 24.253906 " fill-opacity="1" fill-rule="nonzero"/><path fill="#ffffff" d="M 8.890625 11.058594 L 10.230469 11.058594 L 10.230469 17.644531 L 8.890625 17.644531 Z M 8.890625 11.058594 " fill-opacity="1" fill-rule="nonzero"/><path fill="#ffffff" d="M 19.441406 11.058594 L 20.78125 11.058594 L 20.78125 17.644531 L 19.441406 17.644531 Z M 19.441406 11.058594 " fill-opacity="1" fill-rule="nonzero"/></svg>