<?xml version="1.0" encoding="UTF-8"?>
<!DOCTYPE svg PUBLIC "-//W3C//DTD SVG 1.1//EN" "http://www.w3.org/Graphics/SVG/1.1/DTD/svg11.dtd">
<!-- Creator: CorelDRAW 2019 (64-Bit) -->
<svg xmlns="http://www.w3.org/2000/svg" xml:space="preserve" width="5.33334in" height="5.33334in" version="1.1" style="shape-rendering:geometricPrecision; text-rendering:geometricPrecision; image-rendering:optimizeQuality; fill-rule:evenodd; clip-rule:evenodd"
viewBox="0 0 940.23 940.23"
 xmlns:xlink="http://www.w3.org/1999/xlink">
 <defs>
  <style type="text/css">
   <![CDATA[
    .fil0 {fill:none}
    .fil1 {fill:white;fill-rule:nonzero}
   ]]>
  </style>
 </defs>
 <g id="Layer_x0020_1">
  <metadata id="CorelCorpID_0Corel-Layer"/>
  <rect class="fil0" width="940.23" height="940.23"/>
  <g id="_2254883092144">
   <path class="fil1" d="M470.12 296.76c47.87,0 91.21,19.41 122.58,50.78 31.37,31.37 50.78,74.71 50.78,122.58 0,47.87 -19.41,91.21 -50.78,122.58 -31.37,31.37 -74.71,50.78 -122.58,50.78 -47.87,0 -91.21,-19.41 -122.58,-50.77 -31.37,-31.37 -50.77,-74.72 -50.77,-122.58 0,-47.87 19.41,-91.21 50.78,-122.58 31.37,-31.37 74.71,-50.78 122.58,-50.78l0 0zm107.6 65.76c-27.53,-27.53 -65.58,-44.57 -107.6,-44.57 -42.02,0 -80.07,17.04 -107.6,44.57 -27.54,27.53 -44.57,65.58 -44.57,107.6 0,42.02 17.04,80.07 44.57,107.6 27.53,27.53 65.58,44.57 107.6,44.57 42.02,0 80.07,-17.04 107.6,-44.57 27.54,-27.53 44.57,-65.58 44.57,-107.6 0,-42.02 -17.04,-80.07 -44.57,-107.6l0 0z"/>
   <path class="fil1" d="M607.91 383.48c-4.69,6.13 -9.77,11.93 -15.21,17.38 -31.37,31.37 -74.72,50.77 -122.59,50.77 -47.87,0 -91.21,-19.41 -122.58,-50.77 -5.44,-5.44 -10.53,-11.25 -15.21,-17.38 3.96,-6.29 8.35,-12.29 13.11,-17.96 5.1,7.28 10.82,14.09 17.09,20.36 27.53,27.53 65.58,44.57 107.6,44.57 42.02,0 80.07,-17.03 107.61,-44.57 6.27,-6.27 11.99,-13.08 17.09,-20.35 4.76,5.67 9.14,11.67 13.11,17.96z"/>
   <path class="fil1" d="M470.11 488.61c47.87,0 91.21,19.41 122.58,50.77 5.45,5.45 10.53,11.25 15.22,17.38 -3.96,6.29 -8.35,12.29 -13.11,17.96 -5.1,-7.28 -10.83,-14.09 -17.09,-20.36 -27.53,-27.53 -65.58,-44.57 -107.6,-44.57 -42.02,0 -80.07,17.03 -107.6,44.57 -6.27,6.27 -11.99,13.08 -17.09,20.36 -4.76,-5.67 -9.14,-11.67 -13.11,-17.96 4.69,-6.13 9.77,-11.94 15.22,-17.39 31.37,-31.37 74.71,-50.77 122.58,-50.77z"/>
   <path class="fil1" d="M480.71 307.71l0 324.83 -0.17 0.01 -0.16 0.01 -0.17 0.01 -0.16 0.01 -0.16 0.01 -0.16 0.01c-0.71,0.04 -1.43,0.08 -2.14,0.11l-0.16 0.01c-0.86,0.04 -1.73,0.07 -2.59,0.1l-0.72 0.02 -0.17 0c-1.27,0.03 -2.55,0.05 -3.83,0.05 -1.27,0 -2.53,-0.02 -3.79,-0.05l-0.87 -0.02 -0.16 -0.01c-0.77,-0.02 -1.55,-0.05 -2.32,-0.09l-0.16 -0.01 -0.17 -0.01c-0.72,-0.03 -1.43,-0.07 -2.14,-0.11l-0.17 -0.01 -0.16 -0.01 -0.16 -0.01 -0.17 -0.01 -0.16 -0.01 -0.17 -0.01 0 -324.83 0.17 -0.01 0.16 -0.01 0.17 -0.01 0.16 -0.01 0.16 -0.01 0.17 -0.01c0.71,-0.04 1.43,-0.08 2.14,-0.11l0.17 -0.01 0.16 -0.01c0.77,-0.03 1.54,-0.06 2.32,-0.09l0.16 -0.01 0.87 -0.02c1.26,-0.03 2.52,-0.05 3.79,-0.05 1.28,0 2.56,0.02 3.83,0.05l0.17 0 0.71 0.02c0.87,0.03 1.73,0.06 2.6,0.1l0.16 0.01c0.71,0.03 1.43,0.07 2.14,0.11l0.16 0.01 0.16 0.01 0.17 0.01 0.16 0.01 0.16 0.01 0.16 0.01z"/>
   <path class="fil1" d="M478.55 313.69l-83.34 110.75 -16.88 -12.66 78.15 -103.85c4.49,-0.37 9.03,-0.57 13.62,-0.57l8.45 6.33z"/>
   <path class="fil1" d="M483.74 307.93l78.16 103.85 -16.88 12.66 -83.35 -110.75 8.45 -6.33c4.59,0 9.13,0.2 13.62,0.57z"/>
   <path class="fil1" d="M456.48 632.32l-78.15 -103.86 16.88 -12.66 83.34 110.76 -8.44 6.33c-4.59,0 -9.13,-0.2 -13.62,-0.57z"/>
   <path class="fil1" d="M461.67 626.55l83.35 -110.76 16.88 12.66 -78.16 103.86c-4.49,0.37 -9.03,0.57 -13.62,0.57l-8.44 -6.33z"/>
   <polygon class="fil1" points="397.37,418.11 397.37,522.13 376.18,522.13 376.18,418.11 "/>
   <polygon class="fil1" points="564.05,418.11 564.05,522.13 542.86,522.13 542.86,418.11 "/>
  </g>
 </g>
</svg>
